<svg width="24" height="24" viewBox="0 0 24 24" fill="none" xmlns="http://www.w3.org/2000/svg">
<path d="M3.7029 6.78777L12 10.9363M12 10.9363L20.2972 6.78777M12 10.9363L12 21.0163M7.71433 4.50777L16.2858 8.79348M12.7629 2.75062L19.62 6.17919C19.9057 6.32112 20.146 6.5399 20.3141 6.81095C20.4822 7.08199 20.5713 7.39455 20.5715 7.71348V15.8821C20.5713 16.201 20.4822 16.5135 20.3141 16.7846C20.146 17.0556 19.9057 17.2744 19.62 17.4163L12.7629 20.8449C12.5247 20.9641 12.2621 21.0261 11.9958 21.0261C11.7294 21.0261 11.4668 20.9641 11.2286 20.8449L4.37147 17.4163C4.08615 17.2726 3.84669 17.0519 3.68009 16.7793C3.51349 16.5067 3.42639 16.193 3.42862 15.8735V7.71348C3.42878 7.39455 3.51792 7.08199 3.686 6.81095C3.85408 6.5399 4.09443 6.32112 4.38004 6.17919L11.2372 2.75062C11.4742 2.63283 11.7353 2.57153 12 2.57153C12.2647 2.57153 12.5259 2.63283 12.7629 2.75062Z" stroke="white" stroke-linecap="round" stroke-linejoin="round"/>
</svg>
