<svg width="15" height="18" viewBox="0 0 15 18" fill="none" xmlns="http://www.w3.org/2000/svg">
<path d="M4.35355 0.646447C4.15829 0.451185 3.84171 0.451185 3.64645 0.646447L0.464466 3.82843C0.269204 4.02369 0.269204 4.34027 0.464466 4.53553C0.659728 4.7308 0.976311 4.7308 1.17157 4.53553L4 1.70711L6.82843 4.53553C7.02369 4.7308 7.34027 4.7308 7.53553 4.53553C7.7308 4.34027 7.7308 4.02369 7.53553 3.82843L4.35355 0.646447ZM4.5 12L4.5 1L3.5 1L3.5 12L4.5 12Z" fill="#5AC4BD"/>
<path d="M10.6464 17.3536C10.8417 17.5488 11.1583 17.5488 11.3536 17.3536L14.5355 14.1716C14.7308 13.9763 14.7308 13.6597 14.5355 13.4645C14.3403 13.2692 14.0237 13.2692 13.8284 13.4645L11 16.2929L8.17157 13.4645C7.97631 13.2692 7.65973 13.2692 7.46447 13.4645C7.2692 13.6597 7.2692 13.9763 7.46447 14.1716L10.6464 17.3536ZM10.5 6L10.5 17H11.5L11.5 6H10.5Z" fill="#5AC4BD"/>
</svg>
