<svg width="24" height="24" viewBox="0 0 24 24" fill="none" xmlns="http://www.w3.org/2000/svg">
<path d="M3.82617 16.4883H5.4082V17.833C5.4082 19.6523 6.32227 20.5576 8.16797 20.5576H20.1738C22.002 20.5576 22.9336 19.6436 22.9336 17.833V9.54492C22.9336 7.73438 22.002 6.82031 20.1738 6.82031H18.4951V5.47559C18.4951 3.66504 17.5635 2.75098 15.7354 2.75098H3.82617C1.98047 2.75098 1.06641 3.66504 1.06641 5.47559V13.7637C1.06641 15.583 1.98047 16.4883 3.82617 16.4883ZM3.84375 15.0732C2.96484 15.0732 2.48145 14.6074 2.48145 13.6934V5.55469C2.48145 4.64062 2.96484 4.16602 3.84375 4.16602H15.709C16.5791 4.16602 17.0801 4.64062 17.0801 5.55469V6.82031H8.16797C6.32227 6.82031 5.4082 7.73438 5.4082 9.54492V15.0732H3.84375ZM8.18555 19.1426C7.30664 19.1426 6.82324 18.6768 6.82324 17.7627V9.62402C6.82324 8.70996 7.30664 8.23535 8.18555 8.23535H20.1475C21.0176 8.23535 21.5186 8.70996 21.5186 9.62402V17.7627C21.5186 18.6768 21.0176 19.1426 20.1475 19.1426H8.18555Z" fill="white"/>
</svg>
