<svg width="21" height="21" viewBox="0 0 21 21" fill="none" xmlns="http://www.w3.org/2000/svg">
<path d="M18.935 11.3749C18.8087 11.2705 18.6556 11.2037 18.4932 11.1821C18.3307 11.1604 18.1655 11.1848 18.0162 11.2524C17.091 11.6758 16.085 11.8938 15.0675 11.8912C13.1852 11.8889 11.3802 11.1426 10.046 9.81491C8.71176 8.48724 7.95654 6.68592 7.945 4.8037C7.94899 4.2138 8.02241 3.62643 8.16375 3.0537C8.19374 2.90105 8.18249 2.74316 8.13116 2.5963C8.07983 2.44944 7.99027 2.31892 7.87171 2.21819C7.75315 2.11746 7.60988 2.05016 7.45666 2.02322C7.30343 1.99629 7.1458 2.01069 7 2.06495C5.62828 2.68174 4.43587 3.63711 3.53479 4.84131C2.6337 6.0455 2.05352 7.459 1.84874 8.949C1.64396 10.439 1.82131 11.9566 2.36413 13.3592C2.90695 14.7619 3.79742 16.0035 4.95188 16.9675C6.10635 17.9315 7.48691 18.5861 8.96389 18.87C10.4409 19.1539 11.9658 19.0577 13.3953 18.5904C14.8249 18.1231 16.1122 17.3001 17.1363 16.1986C18.1605 15.0972 18.8878 13.7534 19.25 12.2937C19.2941 12.1266 19.2877 11.9501 19.2317 11.7866C19.1756 11.6231 19.0724 11.4799 18.935 11.3749V11.3749ZM10.6225 17.2287C9.15404 17.2183 7.72467 16.7543 6.53011 15.9002C5.33556 15.0461 4.4342 13.8436 3.94947 12.4574C3.46473 11.0712 3.42032 9.56911 3.82229 8.1567C4.22427 6.74429 5.053 5.49066 6.195 4.56745V4.8037C6.19731 7.15612 7.13284 9.41153 8.79625 11.0749C10.4597 12.7384 12.7151 13.6739 15.0675 13.6762C15.6851 13.6785 16.3012 13.6139 16.905 13.4837C16.3012 14.626 15.3969 15.5818 14.2898 16.2479C13.1826 16.9141 11.9146 17.2653 10.6225 17.2637V17.2287Z" fill="#45AEAC"/>
</svg>
