<svg width="12" height="17" viewBox="0 0 12 17" fill="none" xmlns="http://www.w3.org/2000/svg">
<path d="M11.5695 6.23232C11.3531 9.35266 9.96099 11.9276 8.11736 14.2961C5.63409 17.4803 5.493 17.495 3.30604 14.0111C2.28312 12.4503 1.38042 10.8072 0.60643 9.09715C-0.592873 6.34043 -0.0143863 3.05793 2.3513 1.20538C3.32634 0.437627 4.51066 0.0154429 5.7315 0.000415538C6.95235 -0.0146119 8.14586 0.378297 9.13794 1.12184C9.9487 1.66321 10.6033 2.42478 11.0316 3.32499C11.4599 4.22521 11.6458 5.23018 11.5695 6.23232ZM8.57827 5.96698C8.5764 5.42544 8.42081 4.89664 8.13121 4.44751C7.8416 3.99839 7.43098 3.64913 6.95132 3.44391C6.47166 3.2387 5.94451 3.18677 5.43659 3.29469C4.92867 3.4026 4.46281 3.66551 4.09795 4.05016C3.7331 4.43481 3.48565 4.92389 3.38693 5.45552C3.28821 5.98715 3.34265 6.53745 3.54336 7.03674C3.74407 7.53603 4.08204 7.9619 4.51448 8.26044C4.94692 8.55898 5.45441 8.71677 5.97272 8.71386C6.66361 8.69984 7.3221 8.40517 7.80853 7.89236C8.29496 7.37954 8.57106 6.68893 8.57827 5.96698Z" fill="#45AEAC"/>
</svg>
